<svg id="layer_1" data-name="layer 1" xmlns="http://www.w3.org/2000/svg" viewBox="0 0 200 200"><defs><style>.cls-1{fill:#1b83f6;}.cls-2{fill:#7ab4f5;}.cls-3{fill:#2983f4;}.cls-4{fill:#b3d7f8;}.cls-5{fill:#0d6bd4;}.cls-6{fill:#0e6dd4;}.cls-7{fill:#0f6ed4;}.cls-8{fill:#0d6dd4;}</style></defs><title>painting 2</title><path class="cls-1" d="M26.33,156.92a.68.68,0,0,1,.68-.68h7.85c6.5,0,10.92,4.1,10.92,10.11s-4.42,10.12-10.92,10.12H27a.69.69,0,0,1-.68-.68Zm8.36,17c5,0,8.2-3.06,8.2-7.6s-3.2-7.6-8.2-7.6H29.9a.69.69,0,0,0-.68.68V174Z"/><path class="cls-1" d="M64.25,161.83v14a.68.68,0,0,1-.68.68h-1.3a.69.69,0,0,1-.68-.68V174a6.44,6.44,0,0,1-5.46,2.6,7.82,7.82,0,0,1,0-15.63,6.53,6.53,0,0,1,5.35,2.45v-1.63a.68.68,0,0,1,.68-.68h1.41A.68.68,0,0,1,64.25,161.83Zm-2.74,7a5.17,5.17,0,1,0-5.15,5.4A5,5,0,0,0,61.51,168.81Z"/><path class="cls-1" d="M79.12,174.69a1.13,1.13,0,0,1-.58,1.48,6,6,0,0,1-2.39.47c-3.09,0-4.85-1.7-4.85-4.8v-8.41H68.52a1.2,1.2,0,0,1-1-1.16,1.12,1.12,0,0,1,1-1.12h1.84a1,1,0,0,0,1-1v-1.26a1.12,1.12,0,0,1,1.12-1.12H73a1.12,1.12,0,0,1,1.12,1.12v2.23h3.27a1.12,1.12,0,0,1,1.12,1.12v0a1.12,1.12,0,0,1-1.12,1.12H75.19a1.13,1.13,0,0,0-1.12,1.13v7.17c0,1.65.84,2.57,2.4,2.57a3.65,3.65,0,0,0,1.23-.21,1.12,1.12,0,0,1,1.42.6Z"/><path class="cls-1" d="M96.79,161.83v14a.69.69,0,0,1-.68.68h-1.3a.68.68,0,0,1-.68-.68V174a6.47,6.47,0,0,1-5.46,2.6,7.82,7.82,0,0,1,0-15.63A6.53,6.53,0,0,1,94,163.46v-1.63a.69.69,0,0,1,.68-.68h1.42A.69.69,0,0,1,96.79,161.83Zm-2.75,7a5.17,5.17,0,1,0-5.14,5.4A5,5,0,0,0,94,168.81Z"/><path class="cls-1" d="M117.91,168.81a7.45,7.45,0,0,1-7.74,7.83,6.8,6.8,0,0,1-4.33-1.4.69.69,0,0,0-1.13.53h0a.7.7,0,0,1-.7.7h-1.27a.69.69,0,0,1-.69-.7V155.72a.7.7,0,0,1,.69-.7h1.39a.7.7,0,0,1,.69.7v7.74h0a6.53,6.53,0,0,1,5.35-2.45A7.43,7.43,0,0,1,117.91,168.81Zm-2.8,0a5.17,5.17,0,1,0-5.17,5.4A5,5,0,0,0,115.11,168.81Z"/><path class="cls-1" d="M154.63,167.71v8.14a.68.68,0,0,1-.67.68h-1.43a.68.68,0,0,1-.67-.68V168c0-3-1.5-4.48-4.13-4.48-2.95,0-4.86,1.76-4.86,5.09v7.21a.68.68,0,0,1-.67.68h-1.43a.68.68,0,0,1-.67-.68v-14a.67.67,0,0,1,.67-.67h1.31a.68.68,0,0,1,.68.67h0a.68.68,0,0,0,1.09.53,7.17,7.17,0,0,1,4.43-1.35C152,161.06,154.63,163.2,154.63,167.71Z"/><path class="cls-1" d="M135.32,173.31h0a1.2,1.2,0,0,1-.15,1.69,8,8,0,0,1-5.15,1.64c-5,0-8.24-3.26-8.24-7.83a7.48,7.48,0,0,1,7.69-7.8,7.25,7.25,0,0,1,7.45,6.36,1.21,1.21,0,0,1-1,1.36l-11.12,2.16a5.21,5.21,0,0,0,5.26,3.32,5.91,5.91,0,0,0,3.58-1.08A1.2,1.2,0,0,1,135.32,173.31Zm-10-4.52,7.49-1.42a1.2,1.2,0,0,0,.81-1.8,5,5,0,0,0-9,1.51,3.57,3.57,0,0,0-.08,1.3C124.66,168.88,125.35,168.79,125.35,168.79Z"/><path class="cls-1" d="M173.67,155.64v20.21a.62.62,0,0,1-.62.62h-1.43a.61.61,0,0,1-.61-.62v-.25a.62.62,0,0,0-1-.47,6.77,6.77,0,0,1-4.46,1.51,7.82,7.82,0,0,1,0-15.63,6.53,6.53,0,0,1,5.35,2.45v-7.82a.62.62,0,0,1,.62-.62h1.54A.62.62,0,0,1,173.67,155.64Zm-2.75,13.17a5.17,5.17,0,1,0-5.14,5.4A5,5,0,0,0,170.92,168.81Z"/><path class="cls-2" d="M172.05,86.38h0c-1.54,0-3.33-3.65-4.63-4.21-5.15-2.25-9.93-2.22-15.42-2.89a97.38,97.38,0,0,0-15.89-1c-8.48.39-17.16-.53-25.53,1-13.38,2.39-27.07,5-40.47,7.22C62.07,87.87,55.17,89,47,88.44c-12.08-.87-23.77-.94-33.51-8.5A6,6,0,0,1,11.64,78c-1.5,1.19-2.94,2.3-3.17,4.54a70.79,70.79,0,0,0,.1,17.15c.56,4,1.09,8.08,3.11,11.73,5.14,3.89,10.19,11.1,16.55,12.17s12.71.45,19.26,0a166,166,0,0,0,34.21-5.78c.13,0,1-3.85,1.18-3.91,1.11-4.24,4.15-5.21,7.9-2.52,8.25-2.8,15.88-2.41,24.15-5.13,8.55-2.8,16.54-3.54,25.53-4.33,3.86-.34,9.2-2,13-1.93,8.69,0,17.27-2.08,25.55,1a15.2,15.2,0,0,0,1.8.42l-8.56-14.91"/><path class="cls-3" d="M159.63,72.24c-2.78-.33-5.94-4.19-8.57-5A138.6,138.6,0,0,0,124.57,62a121.69,121.69,0,0,0-21.68,0c-6.33.43-12-.76-18.3,0a111.39,111.39,0,0,1-18.79.48c-7.9-.44-16.2,2.23-22.91-2.36A96.14,96.14,0,0,0,11.64,78a6,6,0,0,0,1.86,1.93c9.74,7.56,21,10.94,33.11,11.81A102.36,102.36,0,0,0,71,90.48c13.4-2.26,26.76-4.78,40.13-7.17a193.78,193.78,0,0,1,25.31-2.67A93,93,0,0,1,152,81c5.49.67,10.94,1.5,16.09,3.75,1.3.56,3.3,2,4,1.62C166,76.88,159.63,72.24,159.63,72.24Z"/><path class="cls-4" d="M90.78,111.39c8.25-2.8,16.47-5.67,24.75-8.39a116.31,116.31,0,0,1,26.28-5.45c3.86-.34,7.75-.6,11.57-.57,8.69,0,17.36.94,25.64,4a15.2,15.2,0,0,0,1.8.42c.78,1.7,1.61,3.37,2.32,5.1a8.42,8.42,0,0,0,2.65,3.57A16.39,16.39,0,0,1,192,121.66c.19,1.83-.53,2.34-2.27,1.81a11,11,0,0,1-4.63-3.4c-.27-.28-.52-.75-1-.57s-.32.7-.37,1.09a16.21,16.21,0,0,1-2.11,6.67c-.77,1.22-1.48,1.68-2.64.18a13.24,13.24,0,0,1-2.75-7.67c0-1,0-2.08,0-3.12,0-4.35-.94-5.8-5.16-7.32a36.36,36.36,0,0,0-15.89-1.83,112.87,112.87,0,0,0-18,3.36c2.2.75,3.85,1.27,5.47,1.88.83.31,1.81.66,1.91,1.7s-.85,1.33-1.53,1.77c-3.93,2.5-8.4,3.06-12.87,3.48a56.16,56.16,0,0,1-13.65.06,4.73,4.73,0,0,0-3,.55,136.27,136.27,0,0,1-40.12,14.17c-14,2.54-27.93,2.52-41.36-3.1-8.26-3.46-15.28-8.39-19.22-16.81a8.68,8.68,0,0,1-1-3.13,39.2,39.2,0,0,0,17.19,7.75,81.65,81.65,0,0,0,19.34,1.08,167.41,167.41,0,0,0,34.29-6.18,3.17,3.17,0,0,0,.38-.17c.43,2.94,1.67,4.3,3.9,4.61C89.92,119,93.29,115.49,90.78,111.39Z"/><path class="cls-5" d="M159.63,72.24c-2.78-.33-5.3-1.52-7.93-2.32A140.06,140.06,0,0,0,125,64.43a131.72,131.72,0,0,0-22.56-.19c-6.32.43-12.62,1.1-18.9,1.85a105.05,105.05,0,0,1-18.41.67c-7.9-.43-15.56-2.1-22.27-6.69a106.54,106.54,0,0,1,23.56-6.44,154.25,154.25,0,0,1,58.87,1.15A75,75,0,0,1,157,69.69,8.86,8.86,0,0,1,159.63,72.24Z"/><path class="cls-6" d="M68,43.4c-.22-5-.24-9.35,1.17-13.58A9.25,9.25,0,0,1,74,23.91a4.8,4.8,0,0,1,6.26,1.54c1.33,2,1,3.93-1.12,5.86-1.84,1.68-3.7,3.35-5.59,5A26.22,26.22,0,0,0,68,43.4Z"/><path class="cls-7" d="M63.9,49.63c-2.72-3.33-6.13-4.69-9.44-6.24-1.92-.91-3.31-2.38-3.09-4.69a4.47,4.47,0,0,1,3.54-4.12c2.49-.67,4.82-.2,6.36,1.87C64.08,40.25,64.38,44.64,63.9,49.63Z"/><path class="cls-8" d="M90.78,111.39c2.51,4.1-.86,7.56-4,7.13-2.23-.31-3.47-1.67-3.9-4.61C84,109.67,87,108.7,90.78,111.39Z"/></svg>