<?xml version="1.0" encoding="UTF-8" standalone="no"?>
<svg width="960" height="600" viewBox="0 0 960 600" xmlns="http://www.w3.org/2000/svg">
  <style>
    .component { fill: #e6f7ff; stroke: #1890ff; stroke-width: 2; }
    .task { fill: #f6ffed; stroke: #52c41a; stroke-width: 2; }
    .metaservice { fill: #fffbe6; stroke: #faad14; stroke-width: 2; }
    .text { font-family: sans-serif; font-size: 14px; fill: #000000; }
    .bold-text { font-family: sans-serif; font-size: 14px; fill: #000000; font-weight: bold; }
    .label { font-family: sans-serif; font-size: 12px; fill: #666666; }
    .arrow { fill: none; stroke: #000000; stroke-width: 2; marker-end: url(#arrowhead); }
    .dashed { stroke-dasharray: 5, 5; }
    .cancel { font-family: sans-serif; font-size: 11px; fill: #f5222d; }
    .step { font-family: sans-serif; font-size: 12px; fill: #722ed1; font-weight: bold; }
    .watch { fill: none; stroke: #1890ff; stroke-width: 1.5; stroke-dasharray: 5, 3; marker-end: url(#bluearrow); }
    .lease { fill: none; stroke: #52c41a; stroke-width: 2; marker-end: url(#greenarrow); }
    .register { fill: none; stroke: #fa8c16; stroke-width: 2; marker-end: url(#orangearrow); }
    .flow { fill: none; stroke: #000000; stroke-width: 2; marker-end: url(#arrowhead); }
    .background { fill: #f9f9f9; stroke: #d9d9d9; stroke-width: 1; }
    .notify { fill: none; stroke: #722ed1; stroke-width: 1.5; stroke-dasharray: 4, 3; marker-end: url(#purplearrow); }
    .cancel-line { fill: none; stroke: #f5222d; stroke-width: 1.5; stroke-dasharray: 4, 3; marker-end: url(#redarrow); }
  </style>
  
  <defs>
    <marker id="arrowhead" markerWidth="10" markerHeight="7" refX="9" refY="3.5" orient="auto">
      <polygon points="0 0, 10 3.5, 0 7" fill="#000000" />
    </marker>
    <marker id="bluearrow" markerWidth="10" markerHeight="7" refX="9" refY="3.5" orient="auto">
      <polygon points="0 0, 10 3.5, 0 7" fill="#1890ff" />
    </marker>
    <marker id="greenarrow" markerWidth="10" markerHeight="7" refX="9" refY="3.5" orient="auto">
      <polygon points="0 0, 10 3.5, 0 7" fill="#52c41a" />
    </marker>
    <marker id="orangearrow" markerWidth="10" markerHeight="7" refX="9" refY="3.5" orient="auto">
      <polygon points="0 0, 10 3.5, 0 7" fill="#fa8c16" />
    </marker>
    <marker id="purplearrow" markerWidth="10" markerHeight="7" refX="9" refY="3.5" orient="auto">
      <polygon points="0 0, 10 3.5, 0 7" fill="#722ed1" />
    </marker>
    <marker id="redarrow" markerWidth="10" markerHeight="7" refX="9" refY="3.5" orient="auto">
      <polygon points="0 0, 10 3.5, 0 7" fill="#f5222d" />
    </marker>
  </defs>
  
  <!-- Background -->
  <rect x="0" y="0" width="960" height="600" fill="#ffffff" />
  
  <!-- Client area background -->
  <rect x="30" y="30" width="500" height="550" rx="10" class="background" />
  <text x="50" y="55" class="bold-text">Client</text>
  
  <!-- Meta-Service background -->
  <rect x="560" y="30" width="370" height="550" rx="10" class="background" />
  <text x="580" y="55" class="bold-text">Meta-Service</text>
  
  <!-- Components in Client -->
  <rect x="80" y="80" width="120" height="60" rx="5" class="component" />
  <text x="110" y="115" class="text">Semaphore</text>
  
  <rect x="80" y="220" width="120" height="60" rx="5" class="component" />
  <text x="110" y="255" class="text">Acquirer</text>
  
  <rect x="80" y="450" width="120" height="60" rx="5" class="component" />
  <text x="110" y="485" class="text">Guard</text>
  
  <rect x="300" y="80" width="180" height="100" rx="5" class="task" />
  <text x="310" y="110" class="text">KV-Change-Subscriber</text>
  <text x="310" y="130" class="text">(task)</text>
  <text x="310" y="150" class="label">[acquired]</text>
  <text x="310" y="170" class="label">[waiting]</text>
  
  <rect x="300" y="360" width="180" height="60" rx="5" class="task" />
  <text x="340" y="395" class="text">Leaser (task)</text>
  <text x="360" y="415" class="label">extend lease</text>
  
  <!-- Meta-Service components -->
  <rect x="610" y="150" width="280" height="200" rx="5" class="metaservice" />
  <text x="695" y="180" class="bold-text">Key-Value Store</text>
  <text x="630" y="220" class="label">&lt;prefix&gt;/seq_generator -&gt; ''</text>
  <text x="630" y="250" class="label">&lt;prefix&gt;/queue/&lt;seq_1&gt; -&gt; {id: "id_1", value: 1}</text>
  <text x="630" y="280" class="label">&lt;prefix&gt;/queue/&lt;seq_2&gt; -&gt; {id: "id_2", value: 2}</text>
  <text x="630" y="310" class="label">&lt;prefix&gt;/queue/&lt;seq_3&gt; -&gt; {id: "id_3", value: 1}</text>
  
  <!-- Connection points -->
  <circle cx="295" cy="130" r="5" fill="#52c41a" />
  <circle cx="390" cy="360" r="5" fill="#52c41a" />
  
  <!-- Arrows -->
  <!-- 1. Semaphore spawns KV-Change-Subscriber -->
  <path d="M 200 110 L 300 110" class="flow" />
  <text x="225" y="95" class="step">(1) spawn</text>
  
  <!-- Client initialization flow -->
  <path d="M 140 140 L 140 220" class="flow" />
  <text x="150" y="180" class="text">creates</text>
  
  <!-- Acquirer to Guard -->
  <path d="M 140 280 L 140 450" class="flow" />
  <text x="145" y="370" class="step">(5) returns</text>
  
  <!-- 2. Get sequence number and 3. Register -->
  <path d="M 200 225 L 610 225" class="register" />
  <text x="350" y="205" class="step">(2) get seq</text>
  
  <path d="M 200 245 L 610 245" class="register" />
  <text x="350" y="265" class="step">(3) register</text>
  
  <!-- 4. Spawn Leaser -->
  <path d="M 200 260 L 255 260 Q 265 260 265 270 L 265 380 L 300 380" class="flow" />
  <text x="230" y="320" class="step">(4) spawn</text>
  
  <!-- Leaser extends lease -->
  <path d="M 480 380 L 530 380 Q 540 380 540 370 L 540 280 L 610 280" class="register" />
  <text x="520" y="345" class="label">extend lease</text>
  
  <!-- Watch Stream -->
  <path d="M 610 180 L 540 180 Q 530 180 530 170 L 530 130 L 480 130" class="watch" />
  <text x="530" y="145" class="label">watch stream</text>
  
  <!-- Guard cancel connections -->
  <path d="M 200 460 L 250 460 Q 260 460 260 400 L 260 150 Q 260 140 270 140 L 300 140" class="cancel-line" />
  <text x="230" y="440" class="cancel">cancel</text>
  
  <path d="M 200 495 L 235 495 Q 245 495 245 460 L 245 400 Q 245 390 270 390 L 300 390" class="cancel-line" />
  <text x="230" y="510" class="cancel">cancel</text>
  
  <!-- KV-Change-Subscriber notification to Acquirer -->
  <path d="M 300 170 L 235 170 Q 225 170 225 180 L 225 230 L 200 230" class="notify" />
  <text x="235" y="200" class="label">notify acquisition</text>
  
  <!-- Caption -->
  <text x="480" y="580" class="label">Semaphore Acquisition Flow</text>
</svg> 