<svg t="1727496872201" class="icon" viewBox="0 0 1024 1024" version="1.1" xmlns="http://www.w3.org/2000/svg" p-id="5761" id="mx_n_1727496872201" width="16" height="16"><path d="M887.466667 859.022222H136.533333c-15.928889 0-28.444444 12.515556-28.444444 28.444445s12.515556 28.444444 28.444444 28.444444h750.933334c15.928889 0 28.444444-12.515556 28.444444-28.444444s-12.515556-28.444444-28.444444-28.444445zM466.488889 744.106667l3.413333 3.413333c11.377778 11.377778 27.306667 17.066667 43.235556 17.066667h2.275555c17.066667 0 31.857778-7.964444 43.235556-19.342223l316.302222-337.92c7.964444-7.964444 10.24-20.48 5.688889-30.72-4.551111-10.24-14.791111-17.066667-26.168889-17.066666H722.488889V147.911111c0-15.928889-12.515556-28.444444-28.444445-28.444444H329.955556c-15.928889 0-28.444444 12.515556-28.444445 28.444444v210.488889H170.666667c-11.377778 0-21.617778 6.826667-26.168889 17.066667-4.551111 10.24-2.275556 22.755556 5.688889 30.72L466.488889 744.106667zM329.955556 415.288889c15.928889 0 28.444444-12.515556 28.444444-28.444445V176.355556h307.2V386.844444c0 15.928889 12.515556 28.444444 28.444444 28.444445h93.297778L516.551111 705.422222c-1.137778 1.137778-3.413333 2.275556-3.413333 2.275556-1.137778 0-2.275556 0-4.551111-2.275556L236.657778 415.288889H329.955556z" p-id="5762" fill="#0c162b"></path></svg>