<svg width="48" height="48" viewBox="0 0 48 48" fill="none" xmlns="http://www.w3.org/2000/svg">
<g clip-path="url(#clip0_9_11)">
<path d="M46.8741 35.0248C46.5214 35.3778 45.1611 34.1675 44.695 33.4741C44.7832 34.3188 44.4683 36.0207 44.0526 36.0081C43.2591 35.9829 42.7427 33.6884 43.045 32.1504C38.0696 29.2886 33.0061 31.7848 33.0061 31.7848H33.0313C33.6485 31.873 35.1222 32.0243 35.0844 32.6799C35.0592 33.1085 33.1698 34.407 27.2372 33.928C25.373 35.5038 17.8407 38.8951 11.1775 37.7857C6.34069 36.6511 3.74595 34.407 2.39819 32.0874C3.63259 32.9572 8.80948 35.882 18.9869 32.6547C30.7262 28.9356 34.4672 26.8933 44.1912 29.4273C44.1912 29.4273 44.1912 29.4399 44.1912 29.4525C44.6194 30.4863 44.7328 31.1418 44.7328 31.1418C46.3577 32.1756 47.3401 34.5709 46.8741 35.0374V35.0248Z" fill="#B3DFFF"/>
<path d="M42.0625 25.7965C43.1331 27.1832 43.7881 28.4565 44.1912 29.4273C34.4672 26.8933 30.7136 28.9356 18.9869 32.6546C8.82206 35.882 3.63257 32.9572 2.39818 32.0873C2.39818 32.0873 2.39818 32.0747 2.39818 32.0621C0.231694 28.3305 1.22677 24.3845 1.22677 24.3845C1.44089 24.1576 1.69281 23.918 1.96992 23.6659C3.07835 24.6744 8.53235 28.8852 19.138 26.2251C19.138 26.2251 35.7646 22.0144 42.0625 25.7713V25.7965Z" fill="#52A6FF"/>
<path d="M36.5202 20.9302C39.0646 22.4556 40.8406 24.1954 42.075 25.7839C35.7771 22.0144 19.1505 26.2377 19.1505 26.2377C8.54485 28.8978 3.09086 24.6871 1.98242 23.6785C3.83401 22.027 7.10893 19.8712 11.5049 18.4592C12.3614 18.8753 15.46 20.1738 19.6922 19.5686C24.6423 18.8627 30.4868 18.7492 36.5076 20.9302H36.5202Z" fill="#0175EE"/>
<path d="M34.1774 19.6947C35.0213 20.0855 35.8023 20.5016 36.5076 20.9302C30.4868 18.7492 24.6424 18.8627 19.6922 19.5687C15.46 20.1738 12.3488 18.8753 11.4923 18.4592C16.4425 16.8582 22.8412 16.19 30.2349 18.2323C31.6834 18.661 32.9934 19.1652 34.1648 19.7073L34.1774 19.6947Z" fill="#015BC7"/>
<path d="M19.201 11.1977C19.201 11.6894 18.8987 12.118 18.4704 12.3071C17.4628 12.8114 16.644 13.6182 16.1528 14.6268C16.0772 14.2738 16.0394 13.9082 16.0394 13.5426C16.0394 12.4332 16.3921 11.412 16.9841 10.5799C17.0219 10.5169 17.0723 10.4539 17.1227 10.4034C17.3368 10.1639 17.6517 10.0126 18.0044 10.0126C18.672 10.0126 19.201 10.5421 19.201 11.2103V11.1977Z" fill="#015BC7"/>
<path d="M15.0569 15.837C15.0569 16.0261 15.0569 16.2152 15.0317 16.3917C14.4523 15.7992 13.7344 15.358 12.9282 15.1058C12.9156 15.1058 12.8904 15.1058 12.8653 15.0932C12.3488 14.9293 11.9709 14.4503 11.9709 13.8703C11.9709 13.1644 12.5378 12.597 13.2431 12.597C13.7218 12.597 14.15 12.8744 14.3642 13.2652C14.805 14.0216 15.0569 14.9041 15.0569 15.8244V15.837Z" fill="#015BC7"/>
<path d="M20.0701 33.5119C20.6753 33.5119 21.1659 33.0209 21.1659 32.4151C21.1659 31.8094 20.6753 31.3183 20.0701 31.3183C19.4649 31.3183 18.9742 31.8094 18.9742 32.4151C18.9742 33.0209 19.4649 33.5119 20.0701 33.5119Z" fill="#0175EE"/>
</g>
<defs>
<clipPath id="clip0_9_11">
<rect width="46" height="28" fill="white" transform="translate(1 10)"/>
</clipPath>
</defs>
</svg>
