<svg xmlns="http://www.w3.org/2000/svg" width="100%" height="100%" viewBox="0 0 385.29 315.59"><defs><style>.cls-1{fill:#0d6bd4;}.cls-2{fill:#2983f4;}.cls-3{fill:#7ab4f5;}.cls-4,.cls-6{fill:#b3d7f8;}.cls-5{fill:#0e6dd4;}.cls-6{stroke:#b3d7f8;stroke-miterlimit:10;stroke-width:2px;}</style></defs><title>resource 2</title><g id="layer_2" data-name="layer 2"><g id="layer_1-2" data-name="layer 1"><path class="cls-1" d="M91.63,70.48s0,18.82,26,18.82,89-10,114-9,64,5.18,64,5.18-37-24-103-26S91.63,70.48,91.63,70.48Z"/><path class="cls-2" d="M91.63,70.48s2,11,28,11,85-7,110-6,66,10,66,10,19,14,28,22,22,27,22,27-25-11.18-85-7.18-107,27-167,29-86-41.82-86-41.82a273.15,273.15,0,0,1,37-25C64.63,78.48,91.63,70.48,91.63,70.48Z"/><path class="cls-3" d="M7.63,114.48s26,31,86,29,107-19,167-23,85,14,85,14l17,30s-20-3.18-70-4.18-135,43-180,48c-41,4.56-95-6.82-106-25.82s-5-62-5-62Z"/><path class="cls-4" d="M6.63,182.48c11,19,60,23.57,101,19,45-5,136-48,186-47s69,10,69,10l6,14s12,9,15,17a26.15,26.15,0,0,1,1,15,16.7,16.7,0,0,1-9-3,27.61,27.61,0,0,1-7-8,47.59,47.59,0,0,1-2,13,14.54,14.54,0,0,1-6,8s-6-4-8-13,0-19,0-19-11-14-38-12-45,7-45,7,5,1,9,2,7,5,7,5-1,8-20,11-43,0-43,0-50,36-128,34S6.63,182.48,6.63,182.48Z"/><path class="cls-5" d="M117.63,55.48s-6-5-10-8-9-4-14-8-5-18,10-17C117.63,22.48,117.63,55.48,117.63,55.48Z"/><path class="cls-5" d="M125.63,41.48a117.25,117.25,0,0,1,12-15c6-6,15-9,15-18s-14-13-22-1S125.63,41.48,125.63,41.48Z"/><circle class="cls-1" cx="159.63" cy="189.48" r="9"/><path class="cls-6" d="M39.71,273.64a1.41,1.41,0,0,1,1.41-1.41H57.41c13.5,0,22.68,8.52,22.68,21s-9.18,21-22.68,21H41.12a1.41,1.41,0,0,1-1.41-1.41ZM57.05,309c10.38,0,17-6.36,17-15.78s-6.66-15.78-17-15.78H47.12a1.41,1.41,0,0,0-1.41,1.41V309Z"/><path class="cls-6" d="M118.43,283.84v29a1.41,1.41,0,0,1-1.41,1.41h-2.7a1.41,1.41,0,0,1-1.41-1.41v-3.63c-2.58,3.6-6.66,5.4-11.34,5.4-9.3,0-16.08-6.54-16.08-16.26s6.78-16.2,16.08-16.2a13.53,13.53,0,0,1,11.1,5.1v-3.39a1.41,1.41,0,0,1,1.41-1.41H117A1.41,1.41,0,0,1,118.43,283.84Zm-5.7,14.49c0-6.78-4.62-11.16-10.68-11.16s-10.74,4.38-10.74,11.16,4.62,11.22,10.74,11.22S112.73,305.11,112.73,298.33Z"/><path class="cls-6" d="M149.3,310.54a2.35,2.35,0,0,1-1.22,3.08,12.52,12.52,0,0,1-5,1c-6.42,0-10.08-3.54-10.08-10V287.17h-5.76a2.49,2.49,0,0,1-2.05-2.41,2.33,2.33,0,0,1,2-2.33H131a2,2,0,0,0,2-2V277.8a2.33,2.33,0,0,1,2.33-2.33h1.11a2.32,2.32,0,0,1,2.32,2.33v4.63h6.8a2.32,2.32,0,0,1,2.32,2.33v.09a2.32,2.32,0,0,1-2.32,2.32h-4.47a2.33,2.33,0,0,0-2.33,2.33v14.89c0,3.42,1.74,5.34,5,5.34a7.71,7.71,0,0,0,2.55-.43,2.36,2.36,0,0,1,3,1.24Z"/><path class="cls-6" d="M186,283.84v29a1.41,1.41,0,0,1-1.41,1.41h-2.7a1.41,1.41,0,0,1-1.41-1.41v-3.63c-2.58,3.6-6.66,5.4-11.34,5.4-9.3,0-16.08-6.54-16.08-16.26s6.78-16.2,16.08-16.2a13.53,13.53,0,0,1,11.1,5.1v-3.39a1.41,1.41,0,0,1,1.41-1.41h2.94A1.41,1.41,0,0,1,186,283.84Zm-5.7,14.49c0-6.78-4.62-11.16-10.68-11.16s-10.74,4.38-10.74,11.16,4.62,11.22,10.74,11.22S180.27,305.11,180.27,298.33Z"/><path class="cls-6" d="M229.83,298.33c0,9.72-6.78,16.26-16.08,16.26a14.18,14.18,0,0,1-9-2.91,1.44,1.44,0,0,0-2.36,1.11h0a1.43,1.43,0,0,1-1.44,1.44h-2.63a1.44,1.44,0,0,1-1.45-1.44V271.16a1.45,1.45,0,0,1,1.45-1.45h2.87a1.44,1.44,0,0,1,1.44,1.45v16.07h0a13.53,13.53,0,0,1,11.1-5.1C223.05,282.13,229.83,288.61,229.83,298.33Zm-5.82,0c0-6.78-4.62-11.16-10.74-11.16s-10.68,4.38-10.68,11.16,4.62,11.22,10.68,11.22S224,305.11,224,298.33Z"/><path class="cls-6" d="M306.06,296.05V313a1.4,1.4,0,0,1-1.4,1.4h-3a1.4,1.4,0,0,1-1.4-1.4V296.71c0-6.24-3.12-9.3-8.58-9.3-6.12,0-10.08,3.66-10.08,10.56v15a1.4,1.4,0,0,1-1.39,1.4h-3a1.4,1.4,0,0,1-1.4-1.4V284a1.4,1.4,0,0,1,1.4-1.4H280a1.4,1.4,0,0,1,1.39,1.4h0a1.4,1.4,0,0,0,2.27,1.09,14.93,14.93,0,0,1,9.19-2.79C300.6,282.25,306.06,286.69,306.06,296.05Z"/><path class="cls-6" d="M266,307.68h0a2.47,2.47,0,0,1-.3,3.5,16.7,16.7,0,0,1-10.7,3.41c-10.26,0-17.1-6.78-17.1-16.26s6.72-16.2,16-16.2c7.94,0,14.29,5.11,15.47,13.22a2.51,2.51,0,0,1-2,2.81l-23.08,4.49c1.62,4.38,5.58,6.9,10.92,6.9a12.24,12.24,0,0,0,7.41-2.25A2.5,2.5,0,0,1,266,307.68Zm-20.68-9.4,15.55-2.93a2.48,2.48,0,0,0,1.66-3.74,10.37,10.37,0,0,0-18.67,3.14,7.17,7.17,0,0,0-.17,2.7C243.85,298.49,245.28,298.28,245.28,298.28Z"/><path class="cls-6" d="M345.57,271v42a1.27,1.27,0,0,1-1.27,1.27h-3a1.27,1.27,0,0,1-1.28-1.27v-.53a1.26,1.26,0,0,0-2.08-1,14.08,14.08,0,0,1-9.26,3.13c-9.3,0-16.08-6.54-16.08-16.26s6.78-16.2,16.08-16.2a13.53,13.53,0,0,1,11.1,5.1V271a1.28,1.28,0,0,1,1.28-1.28h3.21A1.27,1.27,0,0,1,345.57,271Zm-5.7,27.34c0-6.78-4.62-11.16-10.68-11.16s-10.74,4.38-10.74,11.16,4.62,11.22,10.74,11.22S339.87,305.11,339.87,298.33Z"/></g></g></svg>