<svg viewBox="0 0 1024 1024" version="1.1" xmlns="http://www.w3.org/2000/svg" p-id="4353" width="22"><path d="M841.142857 146.285714H387.657143L321.828571 21.942857C321.828571 7.314286 307.2 0 292.571429 0H109.714286C51.2 0 0 51.2 0 109.714286v731.428571c0 58.514286 51.2 109.714286 109.714286 109.714286h731.428571c58.514286 0 109.714286-51.2 109.714286-109.714286v-585.142857c0-58.514286-51.2-109.714286-109.714286-109.714286z m36.571429 694.857143c0 21.942857-14.628571 36.571429-36.571429 36.571429h-731.428571c-21.942857 0-36.571429-14.628571-36.571429-36.571429v-731.428571c0-21.942857 14.628571-36.571429 36.571429-36.571429h160.914285l65.828572 124.342857c0 14.628571 14.628571 21.942857 29.257143 21.942857h475.428571c21.942857 0 36.571429 14.628571 36.571429 36.571429v585.142857z" fill="currentColor" p-id="4354"></path></svg>